<svg width="16" height="16" viewBox="0 0 16 16" fill="none" xmlns="http://www.w3.org/2000/svg">
<path d="M2.82123 0.875C3.12291 0.375 3.87709 0.375 4.17877 0.875L6.89383 5.375C7.1955 5.875 6.81841 6.5 6.21506 6.5H0.78494C0.181593 6.5 -0.195499 5.875 0.106175 5.375L2.82123 0.875Z" fill="white"/>
<circle cx="12.5" cy="3.5" r="3.5" fill="white"/>
<rect y="9" width="7" height="7" rx="2" fill="white"/>
<path fill-rule="evenodd" clip-rule="evenodd" d="M9.28589 9.46723C8.90471 9.84841 8.9047 10.4664 9.28589 10.8476L10.9383 12.5L9.28591 14.1524C8.90473 14.5336 8.90473 15.1516 9.28591 15.5328L9.46725 15.7141C9.84843 16.0953 10.4664 16.0953 10.8476 15.7141L12.5 14.0617L14.1524 15.7141C14.5336 16.0953 15.1516 16.0953 15.5328 15.7141L15.7141 15.5328C16.0953 15.1516 16.0953 14.5336 15.7141 14.1524L14.0617 12.5L15.7141 10.8476C16.0953 10.4664 16.0953 9.84841 15.7141 9.46723L15.5328 9.28589C15.1516 8.90471 14.5336 8.90471 14.1524 9.28589L12.5 10.9383L10.8476 9.28589C10.4664 8.9047 9.84841 8.9047 9.46722 9.28589L9.28589 9.46723Z" fill="white"/>
</svg>
