<svg width="16" height="16" viewBox="0 0 16 16" fill="none" xmlns="http://www.w3.org/2000/svg">
<path fill-rule="evenodd" clip-rule="evenodd" d="M5.20478 0.162686C5.31241 0.251612 5.39306 0.370826 5.43708 0.506062C5.4811 0.641298 5.48662 0.786828 5.45299 0.925236C5.13581 2.21658 5.18416 3.5754 5.59224 4.83898C6.00031 6.10256 6.75082 7.21735 7.7539 8.04986C8.75697 8.88237 9.9701 9.39732 11.248 9.53304C12.5259 9.66877 13.8145 9.41952 14.9594 8.81514C15.082 8.75044 15.22 8.72375 15.3569 8.73827C15.4937 8.75278 15.6236 8.8079 15.7311 8.89701C15.8386 8.98613 15.919 9.10547 15.9628 9.24076C16.0066 9.37605 16.0118 9.52156 15.978 9.65989C15.6431 11.0239 14.9839 12.2789 14.0606 13.3103C13.1373 14.3417 11.9795 15.1165 10.693 15.5637C9.4065 16.011 8.03244 16.1164 6.69651 15.8705C5.36057 15.6245 4.10542 15.035 3.04587 14.1558C1.98632 13.2766 1.1562 12.1358 0.631447 10.8378C0.106696 9.53985 -0.0959304 8.12609 0.0421033 6.72588C0.180137 5.32567 0.654424 3.98371 1.42158 2.82278C2.18873 1.66185 3.22425 0.718999 4.43342 0.0804896C4.55603 0.0159054 4.69397 -0.0106878 4.83075 0.00388841C4.96754 0.0184647 5.09739 0.0735937 5.20478 0.162686Z" fill="white"/>
</svg>
