<svg width="16" height="16" viewBox="0 0 16 16" fill="none" xmlns="http://www.w3.org/2000/svg">
<path d="M8 0C8.19891 0 8.38968 0.0790175 8.53033 0.21967C8.67098 0.360322 8.75 0.551088 8.75 0.75V2.25C8.75 2.44891 8.67098 2.63968 8.53033 2.78033C8.38968 2.92098 8.19891 3 8 3C7.80109 3 7.61032 2.92098 7.46967 2.78033C7.32902 2.63968 7.25 2.44891 7.25 2.25V0.75C7.25 0.551088 7.32902 0.360322 7.46967 0.21967C7.61032 0.0790175 7.80109 0 8 0ZM8 13C8.19891 13 8.38968 13.079 8.53033 13.2197C8.67098 13.3603 8.75 13.5511 8.75 13.75V15.25C8.75 15.4489 8.67098 15.6397 8.53033 15.7803C8.38968 15.921 8.19891 16 8 16C7.80109 16 7.61032 15.921 7.46967 15.7803C7.32902 15.6397 7.25 15.4489 7.25 15.25V13.75C7.25 13.5511 7.32902 13.3603 7.46967 13.2197C7.61032 13.079 7.80109 13 8 13ZM8 5C7.20435 5 6.44129 5.31607 5.87868 5.87868C5.31607 6.44129 5 7.20435 5 8C5 8.79565 5.31607 9.55871 5.87868 10.1213C6.44129 10.6839 7.20435 11 8 11C8.79565 11 9.55871 10.6839 10.1213 10.1213C10.6839 9.55871 11 8.79565 11 8C11 7.20435 10.6839 6.44129 10.1213 5.87868C9.55871 5.31607 8.79565 5 8 5ZM13.657 3.404C13.7307 3.33534 13.7898 3.25254 13.8308 3.16054C13.8718 3.06854 13.8938 2.96923 13.8956 2.86852C13.8974 2.76782 13.8788 2.66779 13.8411 2.5744C13.8034 2.48101 13.7473 2.39618 13.676 2.32496C13.6048 2.25374 13.52 2.1976 13.4266 2.15988C13.3332 2.12216 13.2332 2.10363 13.1325 2.10541C13.0318 2.10718 12.9325 2.12923 12.8405 2.17022C12.7485 2.21121 12.6657 2.27031 12.597 2.344L11.536 3.404C11.4035 3.54617 11.3314 3.73422 11.3348 3.92852C11.3383 4.12282 11.417 4.30821 11.5544 4.44562C11.6918 4.58303 11.8772 4.66175 12.0715 4.66517C12.2658 4.6686 12.4538 4.59648 12.596 4.464L13.657 3.404ZM4.464 12.596C4.53769 12.5273 4.59679 12.4445 4.63778 12.3525C4.67877 12.2605 4.70081 12.1612 4.70259 12.0605C4.70437 11.9598 4.68584 11.8598 4.64812 11.7664C4.6104 11.673 4.55426 11.5882 4.48304 11.517C4.41182 11.4457 4.32699 11.3896 4.2336 11.3519C4.14021 11.3142 4.04018 11.2956 3.93948 11.2974C3.83877 11.2992 3.73946 11.3212 3.64746 11.3622C3.55546 11.4032 3.47266 11.4623 3.404 11.536L2.344 12.596C2.21152 12.7382 2.1394 12.9262 2.14283 13.1205C2.14625 13.3148 2.22497 13.5002 2.36238 13.6376C2.49979 13.775 2.68518 13.8537 2.87948 13.8572C3.07378 13.8606 3.26182 13.7885 3.404 13.656L4.464 12.596ZM16 8C16 8.19891 15.921 8.38968 15.7803 8.53033C15.6397 8.67098 15.4489 8.75 15.25 8.75H13.75C13.5511 8.75 13.3603 8.67098 13.2197 8.53033C13.079 8.38968 13 8.19891 13 8C13 7.80109 13.079 7.61032 13.2197 7.46967C13.3603 7.32902 13.5511 7.25 13.75 7.25H15.25C15.4489 7.25 15.6397 7.32902 15.7803 7.46967C15.921 7.61032 16 7.80109 16 8ZM3 8C3 8.19891 2.92098 8.38968 2.78033 8.53033C2.63968 8.67098 2.44891 8.75 2.25 8.75H0.75C0.551088 8.75 0.360322 8.67098 0.21967 8.53033C0.0790175 8.38968 0 8.19891 0 8C0 7.80109 0.0790175 7.61032 0.21967 7.46967C0.360322 7.32902 0.551088 7.25 0.75 7.25H2.25C2.44891 7.25 2.63968 7.32902 2.78033 7.46967C2.92098 7.61032 3 7.80109 3 8ZM12.596 13.657C12.7382 13.7895 12.9262 13.8616 13.1205 13.8582C13.3148 13.8547 13.5002 13.776 13.6376 13.6386C13.775 13.5012 13.8537 13.3158 13.8572 13.1215C13.8606 12.9272 13.7885 12.7392 13.656 12.597L12.596 11.536C12.5273 11.4623 12.4445 11.4032 12.3525 11.3622C12.2605 11.3212 12.1612 11.2992 12.0605 11.2974C11.9598 11.2956 11.8598 11.3142 11.7664 11.3519C11.673 11.3896 11.5882 11.4457 11.517 11.517C11.4457 11.5882 11.3896 11.673 11.3519 11.7664C11.3142 11.8598 11.2956 11.9598 11.2974 12.0605C11.2992 12.1612 11.3212 12.2605 11.3622 12.3525C11.4032 12.4445 11.4623 12.5273 11.536 12.596L12.596 13.657ZM3.404 4.464C3.54617 4.59648 3.73422 4.6686 3.92852 4.66517C4.12282 4.66175 4.30821 4.58303 4.44562 4.44562C4.58303 4.30821 4.66175 4.12282 4.66517 3.92852C4.6686 3.73422 4.59648 3.54617 4.464 3.404L3.404 2.344C3.33485 2.27234 3.25212 2.21516 3.16063 2.17581C3.06915 2.13646 2.97074 2.11573 2.87116 2.11481C2.77158 2.1139 2.67281 2.13283 2.58062 2.1705C2.48843 2.20817 2.40466 2.26382 2.33421 2.3342C2.26376 2.40459 2.20803 2.4883 2.17028 2.58046C2.13252 2.67261 2.1135 2.77136 2.11432 2.87094C2.11514 2.97053 2.13578 3.06895 2.17504 3.16047C2.2143 3.252 2.2714 3.33478 2.343 3.404L3.404 4.464Z" fill="black"/>
</svg>
