<svg width="21" height="21" viewBox="0 0 21 21" fill="none" xmlns="http://www.w3.org/2000/svg">
<g clip-path="url(#clip0_50_8)">
<path d="M10.5 21C16.299 21 21 16.299 21 10.5C21 4.70101 16.299 0 10.5 0C4.70101 0 0 4.70101 0 10.5C0 16.299 4.70101 21 10.5 21Z" fill="white"/>
<path d="M10.5314 7.7835L10.4571 7.7165C10.0177 7.32079 9.3054 7.32079 8.86607 7.7165L3.79553 12.2835C3.35619 12.6792 3.35619 13.3208 3.79553 13.7165L3.86992 13.7835C4.30926 14.1792 5.02157 14.1792 5.46091 13.7835L10.5314 9.2165C10.9708 8.82079 10.9708 8.17921 10.5314 7.7835Z" fill="black"/>
<path d="M17.2045 7.7835L17.1302 7.7165C16.6908 7.32079 15.9785 7.32079 15.5392 7.7165L10.4686 12.2835C10.0293 12.6792 10.0293 13.3208 10.4686 13.7165L10.543 13.7835C10.9824 14.1792 11.6947 14.1792 12.134 13.7835L17.2045 9.2165C17.6439 8.82079 17.6439 8.17921 17.2045 7.7835Z" fill="black"/>
</g>
<defs>
<clipPath id="clip0_50_8">
<rect width="21" height="21" fill="white"/>
</clipPath>
</defs>
</svg>
